# xmcd
#
# Track frame offsets:
#	150
#	13773
#	29637
#
# Disc length: 753 seconds
#
# Revision: 0
# Processed by: cddbd v1.5.2PL0 Copyright (c) Steve Scherf et al.
# Submitted via: audiograbber 1.83.01
#
DISCID=1f02ef03
DTITLE=Natural Ex - Stay By My Side [CDM)
DYEAR=2006
DGENRE=Dance
TTITLE0=Stay By My Side (Radio Edit)
TTITLE1=Stay By My Side (Summer Phonk Remix Radio Edit)
TTITLE2=Stay By My Side (Summer Phonk Remix Extended)
EXTD=TR.
EXTT0=
EXTT1=
EXTT2=
PLAYORDER=
